<svg xmlns="http://www.w3.org/2000/svg" xmlns:xlink="http://www.w3.org/1999/xlink" width="300" height="300" viewBox="0 0 300 300">
  <defs>
   <style>
      .cls-1 {
        fill: #fff;
        stroke: #000;
        stroke-linejoin: round;
        stroke-width: 4px;
        fill-rule: evenodd;
        filter: url(#filter);
      }
    </style>
    <filter id="filter" x="-60" y="-17" width="434" height="345" filterUnits="userSpaceOnUse">
      <feGaussianBlur result="blur" stdDeviation="25.333" in="SourceAlpha"/>
      <feComposite result="composite"/>
      <feComposite result="composite-2"/>
      <feComposite result="composite-3"/>
      <feFlood result="flood" flood-opacity="0.29"/>
      <feComposite result="composite-4" operator="in" in2="composite-3"/>
      <feBlend result="blend" in2="SourceGraphic"/>
      <feBlend result="blend-2" in="SourceGraphic"/>
    </filter>
  </defs>
  <g style="fill: #fff; filter: url(#filter)">
    <path id="דּעִ" class="cls-1" d="M75.388,249.479a12.766,12.766,0,0,0,9.792-2.621,12.464,12.464,0,0,0,4.907-8.6,13.186,13.186,0,0,0-2.605-9.918,12.548,12.548,0,0,0-8.837-5.064A13.436,13.436,0,0,0,63.632,234.97a12.26,12.26,0,0,0,2.778,9.556,13.188,13.188,0,0,0,8.979,4.953h0ZM18.137,207.825q48.932-2.619,76.185-11.895t40.934-29.836q13.683-20.557,18.443-58.855,2.5-20.154,1.708-34.327-20.6-1.024-35.176,1a233.33,233.33,0,0,1-1.454,36.406q-2.661,21.417-8.667,33.717A42.873,42.873,0,0,1,92.8,162.865L80.439,91.483q-1.771-10.45-3.713-17.475a45.5,45.5,0,0,0-6.04-13.159A209.643,209.643,0,0,0,37.628,71.579l6.217,17.914,16.088,82.591q-14.075,2.088-41.912,3.746-0.217,9.951.117,31.995h0Zm178.4-43.84a12.766,12.766,0,0,0,9.792-2.621,12.466,12.466,0,0,0,4.907-8.6,13.2,13.2,0,0,0-2.6-9.918,12.566,12.566,0,0,0-8.837-5.064,13.184,13.184,0,0,0-9.918,2.6,12.846,12.846,0,0,0-5.1,9.089,12.262,12.262,0,0,0,2.779,9.556,13.188,13.188,0,0,0,8.978,4.953h0Zm23.375,56.891,34.8,2.022,12.743-102.546,20.913,2.6L295.805,91.9l-119.93-14.9-3.914,31.494,60.973,7.578Z" style="stroke: inherit; filter: none; fill: inherit"/>
  </g>
  <use xlink:href="#דּעִ" style="stroke: #000; filter: none; fill: none"/>
</svg>
